<svg xmlns="http://www.w3.org/2000/svg" xmlns:xlink="http://www.w3.org/1999/xlink" width="106" height="28" viewBox="0 0 106 28">
    <defs>
        <path id="prefix__a" d="M0 0.848L7.325 0.848 7.325 9.31 0 9.31z"/>
        <path id="prefix__c" d="M0.002 0.276L7.327 0.276 7.327 8.737 0.002 8.737z"/>
        <path id="prefix__e" d="M0 27.724L104.004 27.724 104.004 1 0 1z"/>
    </defs>
    <g fill="none" fill-rule="evenodd">
        <path fill="#FFF" d="M15.375 4.099c-.563-.438-1.178-.808-1.83-1.1v-.406c.648.277 1.263.626 1.83 1.042v.464zm0 17.476c-.556.466-1.17.856-1.83 1.158V3.323c.66.303 1.274.693 1.83 1.158v17.094zm0 .845c-.567.416-1.182.766-1.83 1.042v-.405c.655-.287 1.27-.656 1.83-1.1v.463zM11.346 2.396c-.609-.07-1.223-.07-1.83 0V2.01c.303-.037.608-.056.915-.058.305.002.611.02.915.058v.385zm0 20.973c-.608.08-1.223.08-1.83 0V2.686c.607-.081 1.222-.081 1.83 0v20.683zm0 .672c-.609.078-1.223.078-1.83 0v-.37c.607.07 1.221.07 1.83 0v.37zM7.316 2.987c-.655.287-1.27.657-1.83 1.1v-.463c.568-.416 1.182-.766 1.83-1.042v.405zm0 19.746c-.66-.302-1.275-.692-1.83-1.158V4.48c.555-.465 1.17-.855 1.83-1.158v19.41zm0 .74c-.65-.27-1.265-.621-1.83-1.041v-.463c.563.439 1.177.808 1.83 1.1v.405zM3.285 6.52C2.05 8.465 1.402 10.724 1.42 13.028c-.018 2.304.63 4.565 1.865 6.509v.649c-1.47-2.1-2.249-4.606-2.223-7.17-.026-2.562.752-5.07 2.223-7.168v.67zm0 12.45c-2.074-3.685-2.074-8.185 0-11.871v11.87zm14.29.567c2.48-3.98 2.48-9.025 0-13.006v-.66c1.472 2.095 2.251 4.598 2.23 7.158.023 2.56-.755 5.063-2.226 7.157l-.005-.65zm0-12.438c2.072 3.677 2.072 8.17 0 11.847V7.098zm3.08 5.93c0-6.578-4.586-11.917-10.225-11.917C4.791 1.11.204 6.45.204 13.028c0 6.578 4.575 11.917 10.227 11.917 5.65 0 10.225-5.327 10.225-11.917z"/>
        <path fill="#FFF" d="M19.557 24.442c-.151-.167-.255-.37-.301-.59.092-.026.173-.079.233-.152l1.112 1.123c-.393.063-.789-.084-1.044-.388v.007zm-.695-.892c-.124-.125-.124-.327.001-.45.125-.126.327-.125.451 0 .124.124.124.325 0 .45-.123.123-.322.123-.445 0l-.007-.007v.007zm-.139 1.2c-.059-.177-.148-.342-.267-.486.161-.12.282-.286.348-.475h.012c.068.045.149.07.231.07h.013l-.337.891zm-3.811.058c-.282.056-.569.083-.856.081l.74-.232c1.601-.6 2.016-1.529 3.093-1.552.228-.002.452.06.648.174v.023c-.009.07-.001.141.024.208v.012c-1.173.543-2.395.973-3.649 1.284v.002zm3.163-2.5l.695.58v.011c-.025.013-.045.033-.059.058-.037.033-.068.072-.092.116v.01c-.183-.098-.384-.157-.591-.174.05-.197.067-.402.049-.605l-.002.004zm1.853-2.9c.379-.702.626-1.467.73-2.258-.023.324-.046.741-.093 1.042-.293 1.571-.747 3.108-1.356 4.586-.076-.012-.154-.012-.231 0-.092-.105-.152-.233-.174-.37-.243-1.077.567-1.748 1.124-2.999zm.613 3.521c-.162.07-.899.336-.899.336l-.013.012c-.003-.064-.018-.127-.046-.185v-.009c.196-.107.36-.263.476-.452.134.137.3.24.481.298h.001zm-.15.776c.07-.302.196-.589.371-.845-.205-.083-.396-.196-.567-.336.361-.52.558-1.138.567-1.772l-.023-4.169c-.296 1.282-.792 2.51-1.471 3.636-.162.243-.232.394-.336.556-.242.391-.374.84-.382 1.3-.234.036-.471.044-.706.023.043.265.035.537-.023.8-1.008.081-1.309.683-2.5 1.332-.591.31-1.206.57-1.841.776 2.038-.023 3.532.266 4.806-.59.137.185.253.387.346.6.247-.175.522-.303.812-.383.358.332.849.481 1.332.405.112-.48-.033-.986-.385-1.333zM14.068 1.157c.288-.001.574.025.857.081 1.252.313 2.473.74 3.648 1.274v.012c-.02.068-.026.138-.023.208v.023c-.197.115-.421.175-.65.174-1.076-.023-1.493-.95-3.091-1.552l-.741-.22zm4.656.132l.313.892h-.012c-.081.011-.16.034-.232.069h-.012c-.063-.191-.184-.358-.347-.475.133-.139.233-.307.29-.491v.005zm.59 1.2c.125.125.125.327 0 .451-.125.125-.327.124-.451-.001-.124-.124-.124-.325 0-.45.128-.115.323-.115.45 0h.002zm.244-.88c.256-.301.652-.446 1.042-.382L19.489 2.35c-.06-.073-.141-.126-.233-.151.046-.22.15-.424.302-.59zm.984 1.491c-.185.056-.353.16-.486.3-.116-.19-.28-.346-.475-.452v-.007c.026-.058.042-.121.046-.185l.012.012c.01-.001.75.277.903.332zm.033 4.74c.046.3.069.718.093 1.042-.104-.791-.351-1.556-.73-2.258-.567-1.251-1.378-1.922-1.112-3.011.032-.134.09-.261.174-.371.077.012.155.012.232 0 .598 1.485 1.048 3.024 1.345 4.597l-.002.001zm-2.5-4.1c.025-.194.01-.391-.046-.579.206-.023.406-.081.59-.174V3c.025.044.056.083.094.116l.058.058-.696.566zm-.255-.579c.064.262.072.535.023.8.235-.027.473-.019.705.023.009.46.14.909.383 1.3.1.162.174.313.336.556.679 1.127 1.175 2.354 1.47 3.636l.024-4.169c-.014-.633-.212-1.248-.567-1.772.172-.138.363-.251.567-.336-.174-.256-.3-.543-.371-.845.347-.346.497-.843.399-1.324-.483-.077-.974.073-1.332.405-.29-.079-.565-.209-.811-.382-.091.213-.207.415-.348.6-1.277-.853-2.782-.565-4.81-.589.634.211 1.249.47 1.842.776 1.193.637 1.483 1.24 2.49 1.321z"/>
        <g transform="translate(0 15.724)">
            <mask id="prefix__b" fill="#fff">
                <use xlink:href="#prefix__a"/>
            </mask>
            <path fill="#FFF" d="M6.75 9.16c-.287-.004-.573-.031-.856-.081-1.252-.313-2.474-.739-3.649-1.274v-.012c.02-.068.027-.138.024-.208v-.023c.196-.115.42-.175.648-.174 1.09.023 1.494.95 3.093 1.552l.74.22zm-4.655-.139l-.314-.892h.012c.08-.01.155-.032.227-.066h.011c.063.191.184.358.347.475-.133.137-.23.303-.285.486l.002-.003zm-.592-1.2c-.124-.125-.124-.327.001-.451.125-.125.327-.124.451.001.124.124.124.326 0 .45-.12.125-.32.128-.445.006l-.008-.007.001.001zm-.242.892c-.257.301-.653.446-1.042.382L1.33 7.972c.06.073.141.126.233.151-.049.219-.155.422-.304.589l.002.001zM.276 7.207c.186-.056.353-.159.487-.3.115.19.28.345.474.452v.012c-.026.059-.042.121-.046.185l-.01-.012c-.015-.002-.755-.268-.907-.338l.002.001zM.241 2.47c-.046-.3-.069-.718-.093-1.042.104.791.351 1.556.73 2.258.567 1.251 1.378 1.923 1.112 3.011-.03.134-.09.261-.174.371-.077-.012-.155-.012-.232 0C.986 5.583.536 4.042.24 2.469l.002.001zm2.5 4.111c-.025.194-.01.391.046.579-.205.022-.405.082-.59.174v-.012c-.025-.043-.056-.083-.093-.116l-.059-.058v-.012l.696-.555zm.255.579c-.059-.263-.066-.534-.022-.8-.236.027-.474.019-.706-.023-.009-.46-.14-.909-.382-1.3-.1-.162-.175-.313-.336-.556C.871 3.355.374 2.129.077.848L.055 5.017c.013.633.21 1.248.564 1.772-.172.138-.363.251-.566.336.175.256.3.543.37.845-.344.346-.49.842-.394 1.32.483.077.974-.073 1.332-.405.29.079.565.209.811.382.091-.213.207-.415.348-.6 1.273.857 2.767.567 4.805.591-.633-.211-1.248-.471-1.84-.776-1.192-.634-1.482-1.241-2.489-1.322z" mask="url(#prefix__b)"/>
        </g>
        <g transform="translate(0 .724)">
            <mask id="prefix__d" fill="#fff">
                <use xlink:href="#prefix__c"/>
            </mask>
            <path fill="#FFF" d="M.22.503c.389-.064.784.08 1.039.382.15.167.255.37.3.59-.092.026-.173.079-.233.152L.22.503zm1.723 1.262c.124.125.124.327-.001.45-.125.126-.327.125-.451 0-.125-.124-.125-.325 0-.45.128-.116.324-.116.452 0zm.15-1.2c.059.176.149.339.267.482-.161.12-.281.286-.347.475H2c-.068-.045-.149-.07-.231-.07h-.013l.337-.887zm3.81-.05c.282-.056.569-.083.857-.081l-.74.23c-1.611.592-2.017 1.53-3.101 1.542-.227.002-.452-.058-.648-.174v-.023c.01-.07.001-.141-.024-.208v-.012C3.426 1.257 4.649.83 5.903.515zm-3.162 2.5l-.695-.578c.026-.013.045-.033.059-.058.033-.036.064-.074.093-.114v-.013c.182.098.383.157.59.174-.049.193-.065.392-.047.59zM.874 5.906C.497 6.607.249 7.373.145 8.163c.022-.324.046-.741.093-1.042C.531 5.548.986 4.01 1.595 2.53c.076.012.154.012.231 0 .092.105.153.234.174.37.254 1.077-.555 1.749-1.124 3l-.002.005zM.275 2.384c.162-.07.9-.336.9-.336l.012-.012c.003.064.018.127.046.185v.012c-.196.107-.36.263-.475.452-.138-.136-.302-.24-.483-.306v.005zm-.233.08c.205.083.397.197.568.337C.25 3.32.053 3.934.042 4.565l.025 4.172C.363 7.456.859 6.229 1.536 5.1c.163-.243.233-.394.336-.556.243-.391.374-.84.382-1.3.235-.036.471-.044.706-.023-.043-.265-.035-.537.024-.8 1.007-.081 1.308-.683 2.5-1.332C6.075.78 6.692.523 7.327.318 5.301.353 3.807.065 2.52.92c-.138-.186-.254-.388-.348-.6-.246.174-.52.303-.81.382C1.004.37.514.22.032.295c-.098.479.049.974.394 1.32-.079.303-.209.59-.384.85z" mask="url(#prefix__d)"/>
        </g>
        <path fill="#FFF" d="M31.718 7.527h3.786v4.876h-1.262l-.184-1.135c-.652.905-1.713 1.422-2.826 1.378-2.177 0-4.159-1.563-4.159-4.737 0-2.467 1.378-4.806 4.424-4.795 2.78 0 3.868 1.807 3.973 3.057h-1.889c-.234-.896-1.053-1.515-1.979-1.494-1.356 0-2.594.938-2.594 3.254 0 2.467 1.355 3.115 2.641 3.115 1.13-.013 2.07-.869 2.188-1.992H31.73V7.527h-.012zM38.434 8.384c.1-.88.544-1.413 1.378-1.413.75-.004 1.364.602 1.368 1.354l-.001.06h-2.745zm2.65 2.061c-.174.467-.635.763-1.133.73-1.424 0-1.53-1.135-1.576-1.645h4.61v-.313c0-3.069-1.83-3.694-3.151-3.694-1.72-.064-3.166 1.28-3.23 3-.004.131-.001.262.01.393 0 2.768 1.449 3.671 3.347 3.671 1.367.068 2.595-.824 2.953-2.143l-1.83.001zM50.224 12.414h-1.757V8.337c0-.486-.023-1.32-1.147-1.32-.759-.015-1.386.587-1.402 1.346-.001.069.002.138.012.206v3.845h-1.764V5.697h1.692v.984h.022c.648-1.112 2.073-1.49 3.186-.843.692.402 1.13 1.132 1.158 1.932v4.644zM53.142 8.384c.1-.88.544-1.413 1.378-1.413.75-.004 1.364.602 1.368 1.354l-.001.06h-2.745zm2.664 2.061c-.18.464-.64.76-1.136.73-1.424 0-1.528-1.135-1.574-1.645h4.6v-.313c0-3.069-1.83-3.694-3.151-3.694-1.72-.064-3.166 1.28-3.23 3-.004.131-.001.262.01.393 0 2.768 1.449 3.671 3.347 3.671 1.366.068 2.595-.824 2.953-2.143l-1.82.001zM58.864 5.697h1.69v1.158h.024c.266-.79 1.006-1.326 1.84-1.332.113.002.225.01.337.023v1.8c-.168-.025-.34-.033-.51-.023-.776-.119-1.5.414-1.618 1.19-.021.135-.022.274-.003.41v3.5h-1.76V5.697zM67.49 10.005c-.072.798-.775 1.387-1.574 1.32-.426.028-.794-.296-.821-.72-.002-.03-.002-.06 0-.09 0-.73.543-.893 1.192-1.009.423-.023.832-.15 1.193-.37v.868l.01.001zm1.728-2.536c0-1.656-1.727-1.946-2.676-1.946-1.378 0-2.8.29-3 2.351h1.7c0-.524.424-.948.947-.949.048 0 .095.004.142.011.452 0 1.158.035 1.158.788 0 .382-.336.486-.614.533l-1.587.243c-1.131.05-2.008 1.01-1.957 2.141v.002c-.046 1.037.758 1.916 1.795 1.962.08.004.162.002.243-.005.833.021 1.63-.338 2.165-.977.019.273.074.541.162.8h1.9v-.266c-.22-.08-.394-.255-.394-1.042l.016-3.646z"/>
        <mask id="prefix__f" fill="#fff">
            <use xlink:href="#prefix__e"/>
        </mask>
        <path fill="#FFF" d="M70.838 12.414L72.599 12.414 72.599 3.358 70.838 3.358zM76.108 5.698v6.705h-1.76V5.697l1.76.001zm-1.76-.788h1.76V3.265h-1.76V4.91zM79.779 5.697h1.1V6.96h-1.1v3.648c0 .394.012.544.729.544.117 0 .244-.012.372-.023v1.332c-.278.012-.556.023-.834.023h-.232c-1.53 0-1.807-.579-1.807-1.448V6.96h-.9V5.697h.9V3.89h1.76v1.807h.012zM85.707 10.005c-.073.798-.776 1.387-1.575 1.32-.426.028-.793-.296-.82-.72-.003-.03-.003-.06 0-.09 0-.73.542-.893 1.191-1.009.423-.023.833-.15 1.193-.37v.868l.011.001zm1.727-2.536c0-1.656-1.727-1.946-2.676-1.946-1.378 0-2.8.29-3 2.351h1.7c0-.524.424-.948.947-.949.048 0 .095.004.142.011.452 0 1.158.035 1.158.788 0 .382-.336.486-.614.533l-1.587.243c-1.13.05-2.008 1.01-1.957 2.141v.002c-.046 1.037.758 1.916 1.795 1.962.081.004.162.002.243-.005.833.021 1.631-.338 2.165-.977.02.273.074.541.162.8h1.9v-.266c-.219-.08-.394-.255-.394-1.042l.016-3.646zM90.99 5.697h1.1V6.96h-1.1v3.648c0 .394.012.544.73.544.116 0 .243-.012.37-.023v1.332c-.277.012-.555.023-.833.023h-.232c-1.53 0-1.807-.579-1.807-1.448V6.96h-.9V5.697h.9V3.89h1.76l.012 1.807zM28.754 21.713c0-1.054.383-2.06 1.507-2.06 1.216 0 1.516 1.088 1.516 2.153 0 1-.44 1.934-1.563 1.934-1.122 0-1.462-1.228-1.462-2.027h.002zm4.7-5.744h-1.76v3.22h-.023c-.408-.678-1.155-1.078-1.945-1.042-1.472 0-2.79 1.135-2.79 3.451 0 1.841.833 3.6 2.825 3.6.786.044 1.533-.348 1.945-1.019h.024v.845h1.725V15.97zM36.327 20.996c.1-.88.544-1.413 1.378-1.413.752-.004 1.364.602 1.367 1.354v.059h-2.745zm2.651 2.06c-.178.466-.638.76-1.134.73-1.425 0-1.53-1.134-1.575-1.644h4.6v-.313c0-3.07-1.83-3.694-3.15-3.694-1.72-.064-3.166 1.279-3.23 3-.005.13-.002.262.01.393 0 2.756 1.447 3.67 3.347 3.67 1.366.069 2.594-.823 2.953-2.142h-1.82zM51.475 18.938c-.142-.972-1.023-1.66-2-1.563-.9 0-2.247.6-2.247 3.162 0 1.621.637 3.092 2.247 3.092 1.009.044 1.88-.697 2-1.7h1.888c-.226 1.98-1.95 3.444-3.938 3.347-2.41 0-4.135-1.62-4.135-4.748 0-3.162 1.83-4.783 4.159-4.783 1.96-.178 3.703 1.25 3.914 3.208l-1.888-.015zM58.365 22.617c-.073.798-.776 1.387-1.575 1.32-.426.028-.794-.295-.821-.721-.002-.03-.002-.06 0-.09 0-.73.543-.892 1.192-1.008.423-.022.832-.15 1.193-.371v.869l.01.001zm1.726-2.536c0-1.656-1.726-1.946-2.675-1.946-1.378 0-2.8.29-3 2.351h1.7c0-.523.424-.948.947-.949.048 0 .095.004.142.011.452 0 1.158.035 1.158.788 0 .382-.336.486-.614.533l-1.587.243c-1.131.052-2.005 1.011-1.954 2.142-.046 1.037.758 1.916 1.795 1.962.08.004.162.002.243-.005.832.021 1.628-.338 2.162-.976.019.273.074.542.162.8h1.9v-.266c-.22-.081-.394-.255-.394-1.042l.015-3.646zM63.647 18.309h1.1v1.262h-1.1v3.648c0 .394.012.544.729.544.117 0 .244-.012.372-.023v1.332c-.278.012-.556.023-.834.023h-.232c-1.53 0-1.807-.58-1.807-1.448V19.57h-.9v-1.262h.9V16.49h1.76l.012 1.818zM69.576 22.617c-.073.798-.776 1.387-1.575 1.32-.427.028-.794-.295-.822-.721-.002-.03-.002-.06 0-.09 0-.73.543-.892 1.192-1.008.424-.022.833-.15 1.194-.371v.869l.01.001zm1.727-2.536c0-1.656-1.727-1.946-2.677-1.946-1.377 0-2.8.29-3 2.351h1.7c0-.523.425-.948.948-.949.047 0 .094.004.141.011.453 0 1.158.035 1.158.788 0 .382-.335.486-.613.533l-1.587.243c-1.132.051-2.008 1.009-1.958 2.141v.002c-.046 1.037.758 1.916 1.795 1.962.082.004.163.002.244-.005.833.022 1.63-.338 2.165-.977.019.273.073.542.162.8h1.91v-.266c-.22-.081-.394-.255-.394-1.042l.005-3.646zM72.935 25.025L74.695 25.025 74.695 15.969 72.935 15.969zM82.443 25.025h-1.691v-.95h-.023c-.412.73-1.201 1.164-2.038 1.123-1.188.082-2.22-.816-2.3-2.004-.01-.154-.005-.31.018-.463v-4.41h1.76v4.157c0 1.031.6 1.24 1.147 1.24.74.021 1.358-.562 1.38-1.302.002-.077-.002-.153-.013-.228V18.32h1.76v6.705zM90.156 25.026h-1.757v-4.079c0-.486-.023-1.32-1.146-1.32-.758-.016-1.386.587-1.402 1.346-.001.07.003.137.012.206v3.845h-1.764V18.32h1.69v.984h.024c.647-1.112 2.072-1.49 3.186-.844.692.403 1.129 1.132 1.157 1.933v4.634zM95.216 24.91c-.834 2.49-1.054 2.814-2.594 2.814-.243 0-.544-.012-.8-.023v-1.413c.117.012.233.023.336.023.65 0 1-.093 1.16-1.008L90.85 18.32h1.97l1.434 4.945h.024l1.377-4.945h1.866l-2.306 6.59zM101.899 22.617c-.073.798-.776 1.387-1.575 1.32-.426.028-.794-.295-.821-.721-.002-.03-.002-.06-.001-.09 0-.73.543-.892 1.193-1.008.422-.022.832-.15 1.193-.371l.01.87zm1.726-2.536c0-1.656-1.726-1.946-2.675-1.946-1.378 0-2.8.29-3 2.351h1.7c0-.523.424-.948.947-.949.048 0 .095.004.142.011.452 0 1.158.035 1.158.788 0 .382-.336.486-.614.533l-1.587.243c-1.132.051-2.008 1.009-1.957 2.141v.002c-.046 1.037.757 1.916 1.795 1.962.08.004.162.002.243-.005.833.022 1.63-.338 2.165-.977.019.273.073.542.162.8h1.899v-.266c-.22-.081-.393-.255-.393-1.042l.015-3.646z" mask="url(#prefix__f)"/>
    </g>
</svg>
